<svg xmlns="http://www.w3.org/2000/svg" viewBox="0 0 64 64">
  <rect width="64" height="64" rx="14" fill="#0f172a"/>
  <path d="M14 18h36a6 6 0 0 1 6 6v16a6 6 0 0 1-6 6H14z" fill="#0f766e"/>
  <path d="M14 18h8v28h-8a6 6 0 0 1-6-6V24a6 6 0 0 1 6-6z" fill="#14b8a6"/>
  <path d="M28 32h6l3-7 5 14 3-7h7" fill="none" stroke="#ecfeff" stroke-width="4" stroke-linecap="round" stroke-linejoin="round"/>
  <path d="M22 23c3 2 5 5 5 9s-2 7-5 9" fill="none" stroke="#bbf7d0" stroke-width="3" stroke-linecap="round"/>
  <circle cx="48" cy="20" r="6" fill="#60a5fa"/>
</svg>
